<?xml version="1.0" encoding="UTF-8" standalone="no"?>
<!DOCTYPE svg PUBLIC "-//W3C//DTD SVG 1.1//EN" "http://www.w3.org/Graphics/SVG/1.1/DTD/svg11.dtd">
<svg width="100%" height="100%" viewBox="0 0 2481 1772" version="1.1" xmlns="http://www.w3.org/2000/svg" xmlns:xlink="http://www.w3.org/1999/xlink" xml:space="preserve" xmlns:serif="http://www.serif.com/" style="fill-rule:evenodd;clip-rule:evenodd;stroke-linejoin:round;stroke-miterlimit:2;">
    <g>
        <g transform="matrix(4.60653,0,0,4.60653,-6718.42,-5659.21)">
            <path d="M1557.43,1496.85L1607.12,1476.1L1617.24,1479.62L1557.43,1496.85Z" style="fill:rgb(249,162,0);"/>
        </g>
        <g transform="matrix(4.60653,0,0,4.60653,-6718.42,-5659.21)">
            <path d="M1502.87,1496.85L1535.62,1466.19L1534.35,1456.94L1502.87,1496.85Z" style="fill:rgb(249,162,0);"/>
        </g>
        <g transform="matrix(3.6635,-2.19916,1.24885,2.08042,-7252.19,1495.79)">
            <path d="M1502.87,1496.85L1535.62,1466.19L1534.35,1456.94L1502.87,1496.85Z" style="fill:rgb(249,162,0);"/>
        </g>
        <g transform="matrix(3.12574,2.55714e-16,-2.55714e-16,3.12574,-4242.19,-3409.55)">
            <g>
                <path d="M1558.27,1356.18C1553.79,1351.02 1550.68,1346.82 1550.11,1344.77C1547.87,1336.56 1566.69,1291 1573.54,1288.05C1577.61,1286.3 1598.53,1290.55 1616.18,1295.63C1614.42,1283.93 1616.96,1271.7 1623.81,1261.51C1627.98,1277.1 1636.23,1291.83 1648.56,1303.97C1660.88,1316.12 1675.72,1324.15 1691.38,1328.09C1680.03,1335.97 1666.03,1338.42 1653.02,1335.43C1657.69,1351.77 1661.31,1369.31 1659.77,1373.03C1656.93,1379.92 1611.65,1399.41 1603.41,1397.28C1601.47,1396.78 1597.6,1394.05 1592.79,1390.06L1572.12,1404.62L1621.12,1425.63L1422.64,1504.6L1523.41,1423.07L1499.59,1419.33L1558.27,1356.18ZM1605.63,1348.6L1606.62,1357.75L1610.92,1357.25L1593.06,1375.38L1599.6,1381.83L1627.7,1353.32L1621.15,1346.87L1605.63,1348.6ZM1580.26,1349.87C1590.26,1350.87 1597.1,1349.51 1600.8,1345.75C1605.95,1340.52 1605.89,1331.99 1600.66,1326.83C1595.43,1321.68 1586.9,1321.74 1581.74,1326.97L1588.33,1333.46C1589.97,1331.8 1592.51,1331.78 1594.17,1333.42C1595.84,1335.06 1595.86,1337.6 1594.22,1339.26C1592.04,1341.47 1582.04,1341.7 1570.06,1338.83L1563.12,1345.88L1582.17,1364.66L1588.62,1358.11L1580.26,1349.87ZM1635.41,1249.44C1654.17,1235.7 1680.68,1237.19 1697.77,1254.03C1714.86,1270.87 1716.73,1297.36 1703.28,1316.32C1686.85,1314.03 1670.99,1306.63 1658.28,1294.1C1645.57,1281.58 1637.94,1265.83 1635.41,1249.44Z" style="fill:rgb(249,162,0);"/>
            </g>
        </g>
        <g transform="matrix(1.47629,0,0,1.47629,-923.659,-454.671)">
            <text x="1292.23px" y="948.007px" style="font-family:'TheBoldFont-Bold', 'The Bold Font';font-weight:700;font-size:109.421px;fill:rgb(249,162,0);">EINUNDZW<tspan x="1832.77px 1901.15px 1976.87px " y="948.007px 948.007px 948.007px ">ANZ</tspan>IG</text>
        </g>
        <g transform="matrix(3.12574,0,0,3.12574,-4242.19,-3409.55)">
            <path d="M1956.14,1405.3L1642.92,1405.3L1642.92,1501.6L1956.14,1501.6L1956.14,1405.3ZM1991.66,1501.6L1974.06,1501.6L1974.06,1405.3L1991.66,1405.3L1991.66,1501.6ZM2019.69,1501.6L2005.16,1501.6L2005.16,1405.3L2019.69,1405.3L2019.69,1501.6ZM2029.03,1405.3L2029.03,1501.6L2036.47,1501.6L2036.47,1405.3L2029.03,1405.3ZM1914.51,1493.91C1918.33,1493.91 1922.16,1493.16 1925.87,1491.46C1935.22,1487.21 1940.85,1478.4 1940.85,1468.52C1940.85,1458.43 1935.22,1449.72 1925.87,1445.47C1923.33,1444.3 1920.88,1443.56 1918.44,1442.81C1915.78,1441.96 1913.34,1441.11 1911.32,1439.95C1909.2,1438.57 1908.35,1435.7 1909.52,1433.47C1911.32,1429.86 1915.57,1431.02 1916.1,1431.02C1917.69,1431.45 1920.35,1432.4 1920.35,1435.7L1938.3,1435.7C1938.3,1425.08 1931.08,1416.15 1920.35,1413.6C1909.2,1410.74 1898.58,1415.62 1893.48,1425.18C1888.06,1435.7 1891.78,1448.87 1901.76,1455.14C1905.59,1457.58 1909.52,1458.75 1913.02,1459.92C1915.04,1460.66 1916.74,1461.08 1918.33,1461.83C1922.37,1463.85 1922.79,1467.03 1922.79,1468.52C1922.79,1469.9 1922.37,1473.41 1918.33,1475.11C1915.46,1476.38 1912.38,1476.27 1909.84,1474.57C1908.45,1473.73 1906.01,1471.49 1906.01,1467.25L1888.06,1467.25C1888.06,1476.59 1892.52,1484.77 1900.17,1489.76C1904.52,1492.63 1909.52,1493.91 1914.51,1493.91ZM1784.7,1432.4L1784.7,1414.45L1734.67,1414.56L1734.67,1492.42L1784.7,1492.42L1784.7,1474.47L1752.62,1474.47L1752.62,1462.15L1778.65,1462.15L1778.65,1444.19L1752.62,1444.19L1752.62,1432.4L1784.7,1432.4ZM1706.1,1460.02L1680.71,1414.66L1661.17,1414.66L1661.17,1492.42L1679.12,1492.42L1679.12,1446.96L1704.61,1492.42L1724.05,1492.42L1724.05,1414.45L1706.1,1414.45L1706.1,1460.02ZM1871.59,1413.92L1858.95,1457.15L1847.48,1413.92L1829.85,1413.92L1819.97,1457.37L1805.52,1413.92L1786.62,1413.92L1812.54,1492.42L1830.38,1492.42L1839.3,1453.33L1849.61,1492.42L1867.35,1492.42L1890.4,1413.92L1871.59,1413.92Z" style="fill:rgb(249,162,0);"/>
        </g>
    </g>
</svg>
