<?xml version="1.0" encoding="UTF-8"?>
<svg width="1408" height="716" 
viewBox="0 0 1408 716" 
preserveAspectRatio="xMinYMin"
xmlns:xlink="http://www.w3.org/1999/xlink"
xmlns="http://www.w3.org/2000/svg">
<!-- Generated by PQINA - https://pqina.nl/ -->
<title></title>
<g transform="rotate(NaN 704 358) translate(704 358) scale(NaN) translate(-704 -358) translate(0 0)">
<g transform="scale(1 1) translate(0 0)">
<svg width="1408" height="716" viewBox="0 0 1408 716" fill="none" xmlns="http://www.w3.org/2000/svg" style="overflow: visible;">
<g clip-path="url(#clip0)">
<path d="M1747.53 -430.507C1747.53 -430.507 1108.18 609.457 947.609 154.147C868.315 -70.8135 -288.373 317.478 -698 642.749" stroke="white" stroke-miterlimit="10"></path>
<path d="M1737.64 -413.297C1737.64 -413.297 1137.52 613.02 948.89 166.489C847.357 -73.6831 -264.038 332.515 -660.507 647.355" stroke="white" stroke-miterlimit="10"></path>
<path d="M1727.74 -396.086C1727.74 -396.086 1163.02 616.584 950.17 178.745C825.699 -77.2471 -239.703 347.64 -622.898 651.962" stroke="white" stroke-miterlimit="10"></path>
<path d="M1717.84 -378.875C1717.84 -378.875 1185.37 620.495 951.336 191.002C803.111 -81.0717 -215.367 362.677 -585.404 656.482" stroke="white" stroke-miterlimit="10"></path>
<path d="M1707.94 -361.663C1707.94 -361.663 1205.05 624.755 952.616 203.258C779.823 -85.1569 -190.915 377.803 -547.796 661.089" stroke="white" stroke-miterlimit="10"></path>
<path d="M1698.05 -344.453C1698.05 -344.453 1222.75 629.361 953.897 215.514C755.837 -89.3296 -166.579 392.84 -510.186 665.609" stroke="white" stroke-miterlimit="10"></path>
<path d="M1688.04 -327.242C1688.04 -327.242 1238.7 634.316 955.062 227.858C730.92 -93.4149 -142.244 407.878 -472.576 670.216" stroke="white" stroke-miterlimit="10"></path>
<path d="M1678.14 -310.03C1678.14 -310.03 1253.26 639.619 956.342 240.114C705.419 -97.4133 -117.909 423.003 -435.085 674.823" stroke="white" stroke-miterlimit="10"></path>
<path d="M1668.24 -292.819C1668.24 -292.819 1266.76 645.269 957.623 252.37C679.338 -101.238 -93.5731 438.041 -397.474 679.43" stroke="white" stroke-miterlimit="10"></path>
<path d="M1658.34 -275.609C1658.34 -275.609 1279.46 651.267 958.904 264.627C652.441 -104.889 -69.1214 453.079 -359.865 683.95" stroke="white" stroke-miterlimit="10"></path>
<path d="M1648.45 -258.397C1648.45 -258.397 1291.33 657.612 960.068 276.883C624.961 -108.279 -44.7861 468.204 -322.373 688.557" stroke="white" stroke-miterlimit="10"></path>
<path d="M1638.55 -241.186C1638.55 -241.186 1302.63 664.218 961.348 289.226C596.899 -111.321 -20.4514 483.329 -284.764 693.164" stroke="white" stroke-miterlimit="10"></path>
<path d="M1628.53 -223.975C1628.53 -223.975 1313.22 671.085 962.513 301.483C568.14 -114.016 3.76812 498.367 -247.271 697.771" stroke="white" stroke-miterlimit="10"></path>
<path d="M1618.64 -206.764C1618.64 -206.764 1323.7 678.213 963.794 313.739C539.03 -116.45 28.2198 513.404 -209.662 702.291" stroke="white" stroke-miterlimit="10"></path>
<path d="M1608.74 -189.553C1608.74 -189.553 1333.72 685.515 965.075 325.995C509.223 -118.536 52.5561 528.529 -172.052 706.898" stroke="white" stroke-miterlimit="10"></path>
<path d="M1598.84 -172.342C1598.84 -172.342 1343.5 693.164 966.355 338.252C478.949 -120.188 77.007 543.567 -134.443 711.419" stroke="white" stroke-miterlimit="10"></path>
<path d="M1588.95 -155.131C1588.95 -155.131 1353.16 700.987 967.52 350.595C448.093 -121.405 101.226 558.692 -96.9502 716.112" stroke="white" stroke-miterlimit="10"></path>
<path d="M1579.05 -137.92C1579.05 -137.92 1362.59 708.984 968.801 362.851C416.888 -122.274 125.678 573.73 -59.3405 720.632" stroke="white" stroke-miterlimit="10"></path>
<path d="M1569.15 -120.709C1569.15 -120.709 1371.91 717.155 970.081 375.108C385.1 -122.795 150.013 588.768 -21.7318 725.239" stroke="white" stroke-miterlimit="10"></path>
<path d="M1559.14 -103.498C1559.14 -103.498 1380.99 725.587 971.246 387.364C352.964 -122.882 174.349 603.893 15.7614 729.759" stroke="white" stroke-miterlimit="10"></path>
<path d="M1549.24 -86.2871C1549.24 -86.2871 1390.19 734.105 972.527 399.707C320.478 -122.448 198.685 618.931 53.3707 734.366" stroke="white" stroke-miterlimit="10"></path>
<path d="M1539.34 -69.0761C1539.34 -69.0761 1399.27 742.798 973.808 411.964C287.41 -121.752 223.136 634.055 90.9801 738.973" stroke="white" stroke-miterlimit="10"></path>
<path d="M1529.45 -51.8651C1529.45 -51.8651 1408.47 751.664 975.088 424.22C254.225 -120.535 247.471 649.093 128.589 743.58" stroke="white" stroke-miterlimit="10"></path>
<path d="M1519.55 -34.6538C1519.55 -34.6538 1417.55 760.705 976.252 436.476C220.457 -118.97 271.806 664.131 166.081 748.1" stroke="white" stroke-miterlimit="10"></path>
<path d="M1509.65 -17.443C1509.65 -17.443 1426.63 769.918 977.534 448.733C186.458 -116.971 296.142 679.256 203.691 752.707" stroke="white" stroke-miterlimit="10"></path>
<path d="M1499.64 -0.231819C1499.64 -0.231819 1435.6 779.22 978.698 461.076C152.109 -114.537 320.478 694.294 241.184 757.315" stroke="white" stroke-miterlimit="10"></path>
<path d="M1489.74 16.9793C1489.74 16.9793 1444.8 788.607 979.978 473.332C117.41 -111.756 344.812 709.419 278.792 761.835" stroke="white" stroke-miterlimit="10"></path>
<path d="M1479.84 34.1902C1479.84 34.1902 1453.99 798.169 981.259 485.589C82.5959 -108.54 369.265 724.457 316.402 766.442" stroke="white" stroke-miterlimit="10"></path>
<path d="M1469.95 51.401C1469.95 51.401 1463.31 807.817 982.541 497.845C47.4329 -104.976 393.601 739.582 353.896 771.048" stroke="white" stroke-miterlimit="10"></path>
<path d="M1460.05 68.6123C1460.05 68.6123 1472.62 817.64 983.704 510.101C12.0346 -101.064 417.935 754.62 391.504 775.655" stroke="white" stroke-miterlimit="10"></path>
<path d="M1450.15 85.8233C1450.15 85.8233 1482.06 827.462 984.985 522.445C-23.5949 -96.718 442.271 769.744 429.113 780.175" stroke="white" stroke-miterlimit="10"></path>
<path d="M1440.26 103.034C1440.26 103.034 1491.49 837.458 986.267 534.701C-59.3404 -92.024 466.723 784.782 466.723 784.782" stroke="white" stroke-miterlimit="10"></path>
</g>
<defs>
<clipPath id="clip0">
<rect width="1408" height="716" fill="white"></rect>
</clipPath>
</defs>
</svg>
</g>
</g>
</svg>